<?xml version="1.0" encoding="iso-8859-1"?>
<!-- Generator: Adobe Illustrator 19.0.0, SVG Export Plug-In . SVG Version: 6.00 Build 0)  -->
<svg version="1.1" id="Capa_1" xmlns="http://www.w3.org/2000/svg" xmlns:xlink="http://www.w3.org/1999/xlink" x="0px" y="0px"
	 viewBox="0 0 512 512" style="enable-background:new 0 0 512 512;" xml:space="preserve">
<path style="fill:#FC3552;" d="M356.66,512H28.722c0-16.537,8.906-34.182,15.784-45.325l8.258-38.018l32.227-79.1l2.268-5.572
	l11.331-2.77L283.781,295.9l17.373,51.973l39.722,118.801C347.754,477.818,356.66,495.463,356.66,512z"/>
<g>
	<path style="fill:#E21E43;" d="M301.154,347.874c-13.851,31.13-35.855,56.939-69.315,68.176
		c-11.614,3.91-24.617,6.052-39.147,6.052c-14.321,0-27.157-2.08-38.656-5.875c-33.126-10.955-55.088-36.137-69.044-66.671
		l2.268-5.572l11.331-2.77L283.781,295.9L301.154,347.874z"/>
	<path style="fill:#E21E43;" d="M178.632,362.372C132.021,378.669,114.438,485.104,114.438,512H28.722
		c0-16.537,8.906-34.182,15.784-45.325l8.258-38.018l34.496-84.671l11.331-2.77C154.516,347.393,199.632,355.034,178.632,362.372z"
		/>
</g>
<path style="fill:#FEC755;" d="M315.349,446.281c0.272,0.951,11.028,38.426-22.276,38.426c-33.722,0-45.189-45.2-45.189-45.2
	c-6.188-20.028-11.927-43.015-15.68-58.967l-0.366-1.045c39.503-13.265-12.805-18.91-53.207-17.122
	c-31.172,1.369-55.245,7.171-24.596,17.3c-3.753,15.983-9.586,39.45-15.889,59.845c0,0-11.467,45.189-45.189,45.189
	c-33.304,0-22.548-37.485-22.276-38.426c-10.819,23.593-83.281,42.461-56.981,4.025c52.611-90.044-32.813-293.777,31.36-381.438
	c20.614-28.151,63.744-23.269,63.744-23.269s10.422-47.729,65.761-45.524c126.526,5.018,191.378,98.396,186.381,140.46l0.512,0.063
	c9.795,99.567-30.241,239.337,10.871,309.708C398.62,488.742,326.168,469.873,315.349,446.281z"/>
<g>
	<path style="fill:#E5AA41;" d="M154.035,379.673c-3.753,15.983-9.586,39.45-15.889,59.845c0,0-11.467,45.189-45.189,45.189
		c-33.304,0-22.548-37.485-22.276-38.426c-10.819,23.593-83.281,42.461-56.981,4.025c52.611-90.044-32.813-293.777,31.36-381.438
		c20.614-28.151,63.744-23.269,63.744-23.269C86.11,46.445,70.535,165.235,123.846,197.64
		c29.687,18.042,46.088,97.696,54.785,164.732C147.46,363.742,123.386,369.543,154.035,379.673z"/>
	<path style="fill:#E5AA41;" d="M362.431,203.536c-12,3.983-34.36-0.794-40.935-8.561v-0.01c-0.22-4.139-0.606-8.269-1.16-12.377
		l-2.603-25.746c14.31,5.373,27.691,7.265,36.931-1.976c3.502-3.502,5.582-8.404,6.282-14.331l0.512,0.063
		C363.392,160.291,363.382,181.553,362.431,203.536z"/>
</g>
<path style="fill:#FFE2C7;" d="M321.684,202.407c0,66.368-19.861,153.589-89.845,177.088c-11.614,3.91-24.617,6.052-39.147,6.052
	c-14.321,0-27.157-2.08-38.656-5.875c-70.371-23.269-90.326-110.741-90.326-177.266l0.01-0.01
	c17.906,4.411,87.243-36.733,90.619-79.904c2.896,9.314,9.011,18.335,17.07,26.624c12.565,12.91,29.854,24.063,47.04,31.788
	c25.694,11.572,51.179,15.502,60.336,6.345c19.223-19.223-40.809-18.889-33.388-40.475c8.927-25.987,40.506-2.739,69.273,8.875
	l1.767,7.401C319.844,175.918,321.684,189.163,321.684,202.407z"/>
<path style="fill:#E8C5A7;" d="M192.691,385.547c-14.321,0-27.157-2.08-38.656-5.875c-70.371-23.269-90.326-110.741-90.326-177.266
	l0.01-0.01c9.826,2.425,35.154-8.885,56.562-26.718C93.344,248.255,99.124,360.805,192.691,385.547z"/>
<g>
	<path style="fill:#3B4C5B;" d="M151.271,232.667c-2.006,0-4.013-0.765-5.543-2.297c-4.343-4.342-10.119-6.734-16.26-6.734
		c-6.142,0-11.916,2.392-16.259,6.734c-3.063,3.062-8.027,3.063-11.087,0c-3.063-3.062-3.063-8.025-0.001-11.087
		c7.304-7.305,17.016-11.327,27.347-11.327c10.33,0,20.042,4.022,27.346,11.327c3.063,3.062,3.063,8.025,0.001,11.087
		C155.284,231.901,153.277,232.667,151.271,232.667z"/>
	<path style="fill:#3B4C5B;" d="M285.729,232.667c-2.006,0-4.013-0.765-5.543-2.297c-8.966-8.964-23.552-8.966-32.52,0
		c-3.062,3.063-8.026,3.062-11.087,0c-3.062-3.062-3.062-8.026,0.001-11.087c15.079-15.08,39.616-15.078,54.692,0
		c3.063,3.062,3.063,8.025,0.001,11.087C289.742,231.901,287.735,232.667,285.729,232.667z"/>
</g>
<path style="fill:#E8C5A7;" d="M196.697,341.377c-32.312,0-61.595-19.115-74.599-48.696c-1.744-3.964,0.057-8.589,4.021-10.332
	c3.967-1.741,8.589,0.057,10.333,4.021c10.503,23.89,34.152,39.327,60.246,39.327c26.095,0,49.744-15.437,60.248-39.327
	c1.741-3.964,6.37-5.762,10.332-4.021c3.964,1.743,5.765,6.368,4.021,10.332C258.293,322.263,229.009,341.377,196.697,341.377z"/>
<g>
	<ellipse style="fill:#F995A9;" cx="278.317" cy="259.898" rx="23.271" ry="11.466"/>
	<ellipse style="fill:#F995A9;" cx="115.079" cy="259.898" rx="23.271" ry="11.466"/>
</g>
<g>
	<path style="fill:#FEC755;" d="M484.515,5.497c-2.362-0.512-4.756-1.004-7.171-1.443C479.77,4.494,482.154,4.986,484.515,5.497z"/>
	<path style="fill:#FEC755;" d="M503.039,377.947c0.327-0.126,0.646-0.262,0.971-0.392c-0.046,0.02-0.088,0.038-0.135,0.056
		C503.592,377.727,503.311,377.831,503.039,377.947z"/>
</g>
<path style="fill:#E8C5A7;" d="M209.763,278.653H183.63c-4.331,0-7.84-3.51-7.84-7.84c0-4.33,3.509-7.84,7.84-7.84h26.133
	c4.331,0,7.84,3.51,7.84,7.84C217.603,275.142,214.094,278.653,209.763,278.653z"/>
<g>
</g>
<g>
</g>
<g>
</g>
<g>
</g>
<g>
</g>
<g>
</g>
<g>
</g>
<g>
</g>
<g>
</g>
<g>
</g>
<g>
</g>
<g>
</g>
<g>
</g>
<g>
</g>
<g>
</g>
</svg>
